<?xml version="1.0" encoding="utf-8" standalone="no"?>
<!DOCTYPE svg PUBLIC "-//W3C//DTD SVG 1.1//EN"
  "http://www.w3.org/Graphics/SVG/1.1/DTD/svg11.dtd">
<svg xmlns:xlink="http://www.w3.org/1999/xlink" width="568.053496pt" height="314.754062pt" viewBox="0 0 568.053496 314.754062" xmlns="http://www.w3.org/2000/svg" version="1.1">
 <metadata>
  <rdf:RDF xmlns:dc="http://purl.org/dc/elements/1.1/" xmlns:cc="http://creativecommons.org/ns#" xmlns:rdf="http://www.w3.org/1999/02/22-rdf-syntax-ns#">
   <cc:Work>
    <dc:type rdf:resource="http://purl.org/dc/dcmitype/StillImage"/>
    <dc:date>2026-08-09T20:23:40.910485</dc:date>
    <dc:format>image/svg+xml</dc:format>
    <dc:creator>
     <cc:Agent>
      <dc:title>Matplotlib v3.11.1, https://matplotlib.org/</dc:title>
     </cc:Agent>
    </dc:creator>
   </cc:Work>
  </rdf:RDF>
 </metadata>
 <defs>
  <style type="text/css">*{stroke-linejoin: round; stroke-linecap: butt}</style>
 </defs>
 <g id="figure_1">
  <g id="patch_1">
   <path d="M 0 314.754062 
L 568.053496 314.754062 
L 568.053496 0 
L 0 0 
z
" style="fill: #f8fafc"/>
  </g>
  <g id="axes_1">
   <g id="patch_2">
    <path d="M 47.848438 274.730879 
L 560.853496 274.730879 
L 560.853496 34.369062 
L 47.848438 34.369062 
z
" style="fill: #ffffff"/>
   </g>
   <g id="matplotlib.axis_1">
    <g id="xtick_1">
     <g id="line2d_1">
      <path d="M 71.166849 274.730879 
L 71.166849 34.369062 
" clip-path="url(#p346bb0b420)" style="fill: none; stroke-dasharray: 0.8,1.32; stroke-dashoffset: 0; stroke: #e2e8f0; stroke-opacity: 0.8; stroke-width: 0.8"/>
     </g>
     <g id="line2d_2">
      <defs>
       <path id="m150c011b83" d="M 0 0 
L 0 3.5 
" style="stroke: #000000; stroke-width: 0.8"/>
      </defs>
      <g>
       <use xlink:href="#m150c011b83" x="71.166849" y="274.730879" style="stroke: #000000; stroke-width: 0.8"/>
      </g>
     </g>
     <g id="text_1">
      <text style="font-size: 11px; font-family: 'Yu Gothic UI', 'Hiragino Sans', 'Yu Gothic', 'Meiryo', 'DejaVu Sans', 'Bitstream Vera Sans', 'Computer Modern Sans Serif', 'Lucida Grande', 'Verdana', 'Geneva', 'Lucid', 'Arial', 'Helvetica', 'Avant Garde', sans-serif; text-anchor: middle" x="71.166849" y="289.73918" transform="rotate(-0 71.166849 289.73918)">0</text>
     </g>
    </g>
    <g id="xtick_2">
     <g id="line2d_3">
      <path d="M 137.790883 274.730879 
L 137.790883 34.369062 
" clip-path="url(#p346bb0b420)" style="fill: none; stroke-dasharray: 0.8,1.32; stroke-dashoffset: 0; stroke: #e2e8f0; stroke-opacity: 0.8; stroke-width: 0.8"/>
     </g>
     <g id="line2d_4">
      <g>
       <use xlink:href="#m150c011b83" x="137.790883" y="274.730879" style="stroke: #000000; stroke-width: 0.8"/>
      </g>
     </g>
     <g id="text_2">
      <text style="font-size: 11px; font-family: 'Yu Gothic UI', 'Hiragino Sans', 'Yu Gothic', 'Meiryo', 'DejaVu Sans', 'Bitstream Vera Sans', 'Computer Modern Sans Serif', 'Lucida Grande', 'Verdana', 'Geneva', 'Lucid', 'Arial', 'Helvetica', 'Avant Garde', sans-serif; text-anchor: middle" x="137.790883" y="289.73918" transform="rotate(-0 137.790883 289.73918)">2</text>
     </g>
    </g>
    <g id="xtick_3">
     <g id="line2d_5">
      <path d="M 204.414916 274.730879 
L 204.414916 34.369062 
" clip-path="url(#p346bb0b420)" style="fill: none; stroke-dasharray: 0.8,1.32; stroke-dashoffset: 0; stroke: #e2e8f0; stroke-opacity: 0.8; stroke-width: 0.8"/>
     </g>
     <g id="line2d_6">
      <g>
       <use xlink:href="#m150c011b83" x="204.414916" y="274.730879" style="stroke: #000000; stroke-width: 0.8"/>
      </g>
     </g>
     <g id="text_3">
      <text style="font-size: 11px; font-family: 'Yu Gothic UI', 'Hiragino Sans', 'Yu Gothic', 'Meiryo', 'DejaVu Sans', 'Bitstream Vera Sans', 'Computer Modern Sans Serif', 'Lucida Grande', 'Verdana', 'Geneva', 'Lucid', 'Arial', 'Helvetica', 'Avant Garde', sans-serif; text-anchor: middle" x="204.414916" y="289.73918" transform="rotate(-0 204.414916 289.73918)">4</text>
     </g>
    </g>
    <g id="xtick_4">
     <g id="line2d_7">
      <path d="M 271.03895 274.730879 
L 271.03895 34.369062 
" clip-path="url(#p346bb0b420)" style="fill: none; stroke-dasharray: 0.8,1.32; stroke-dashoffset: 0; stroke: #e2e8f0; stroke-opacity: 0.8; stroke-width: 0.8"/>
     </g>
     <g id="line2d_8">
      <g>
       <use xlink:href="#m150c011b83" x="271.03895" y="274.730879" style="stroke: #000000; stroke-width: 0.8"/>
      </g>
     </g>
     <g id="text_4">
      <text style="font-size: 11px; font-family: 'Yu Gothic UI', 'Hiragino Sans', 'Yu Gothic', 'Meiryo', 'DejaVu Sans', 'Bitstream Vera Sans', 'Computer Modern Sans Serif', 'Lucida Grande', 'Verdana', 'Geneva', 'Lucid', 'Arial', 'Helvetica', 'Avant Garde', sans-serif; text-anchor: middle" x="271.03895" y="289.73918" transform="rotate(-0 271.03895 289.73918)">6</text>
     </g>
    </g>
    <g id="xtick_5">
     <g id="line2d_9">
      <path d="M 337.662984 274.730879 
L 337.662984 34.369062 
" clip-path="url(#p346bb0b420)" style="fill: none; stroke-dasharray: 0.8,1.32; stroke-dashoffset: 0; stroke: #e2e8f0; stroke-opacity: 0.8; stroke-width: 0.8"/>
     </g>
     <g id="line2d_10">
      <g>
       <use xlink:href="#m150c011b83" x="337.662984" y="274.730879" style="stroke: #000000; stroke-width: 0.8"/>
      </g>
     </g>
     <g id="text_5">
      <text style="font-size: 11px; font-family: 'Yu Gothic UI', 'Hiragino Sans', 'Yu Gothic', 'Meiryo', 'DejaVu Sans', 'Bitstream Vera Sans', 'Computer Modern Sans Serif', 'Lucida Grande', 'Verdana', 'Geneva', 'Lucid', 'Arial', 'Helvetica', 'Avant Garde', sans-serif; text-anchor: middle" x="337.662984" y="289.73918" transform="rotate(-0 337.662984 289.73918)">8</text>
     </g>
    </g>
    <g id="xtick_6">
     <g id="line2d_11">
      <path d="M 404.287017 274.730879 
L 404.287017 34.369062 
" clip-path="url(#p346bb0b420)" style="fill: none; stroke-dasharray: 0.8,1.32; stroke-dashoffset: 0; stroke: #e2e8f0; stroke-opacity: 0.8; stroke-width: 0.8"/>
     </g>
     <g id="line2d_12">
      <g>
       <use xlink:href="#m150c011b83" x="404.287017" y="274.730879" style="stroke: #000000; stroke-width: 0.8"/>
      </g>
     </g>
     <g id="text_6">
      <text style="font-size: 11px; font-family: 'Yu Gothic UI', 'Hiragino Sans', 'Yu Gothic', 'Meiryo', 'DejaVu Sans', 'Bitstream Vera Sans', 'Computer Modern Sans Serif', 'Lucida Grande', 'Verdana', 'Geneva', 'Lucid', 'Arial', 'Helvetica', 'Avant Garde', sans-serif; text-anchor: middle" x="404.287017" y="289.73918" transform="rotate(-0 404.287017 289.73918)">10</text>
     </g>
    </g>
    <g id="xtick_7">
     <g id="line2d_13">
      <path d="M 470.911051 274.730879 
L 470.911051 34.369062 
" clip-path="url(#p346bb0b420)" style="fill: none; stroke-dasharray: 0.8,1.32; stroke-dashoffset: 0; stroke: #e2e8f0; stroke-opacity: 0.8; stroke-width: 0.8"/>
     </g>
     <g id="line2d_14">
      <g>
       <use xlink:href="#m150c011b83" x="470.911051" y="274.730879" style="stroke: #000000; stroke-width: 0.8"/>
      </g>
     </g>
     <g id="text_7">
      <text style="font-size: 11px; font-family: 'Yu Gothic UI', 'Hiragino Sans', 'Yu Gothic', 'Meiryo', 'DejaVu Sans', 'Bitstream Vera Sans', 'Computer Modern Sans Serif', 'Lucida Grande', 'Verdana', 'Geneva', 'Lucid', 'Arial', 'Helvetica', 'Avant Garde', sans-serif; text-anchor: middle" x="470.911051" y="289.73918" transform="rotate(-0 470.911051 289.73918)">12</text>
     </g>
    </g>
    <g id="xtick_8">
     <g id="line2d_15">
      <path d="M 537.535084 274.730879 
L 537.535084 34.369062 
" clip-path="url(#p346bb0b420)" style="fill: none; stroke-dasharray: 0.8,1.32; stroke-dashoffset: 0; stroke: #e2e8f0; stroke-opacity: 0.8; stroke-width: 0.8"/>
     </g>
     <g id="line2d_16">
      <g>
       <use xlink:href="#m150c011b83" x="537.535084" y="274.730879" style="stroke: #000000; stroke-width: 0.8"/>
      </g>
     </g>
     <g id="text_8">
      <text style="font-size: 11px; font-family: 'Yu Gothic UI', 'Hiragino Sans', 'Yu Gothic', 'Meiryo', 'DejaVu Sans', 'Bitstream Vera Sans', 'Computer Modern Sans Serif', 'Lucida Grande', 'Verdana', 'Geneva', 'Lucid', 'Arial', 'Helvetica', 'Avant Garde', sans-serif; text-anchor: middle" x="537.535084" y="289.73918" transform="rotate(-0 537.535084 289.73918)">14</text>
     </g>
    </g>
    <g id="text_9">
     <text style="font-weight: 700; font-size: 11px; font-family: 'Yu Gothic UI', 'Hiragino Sans', 'Yu Gothic', 'Meiryo', 'DejaVu Sans', 'Bitstream Vera Sans', 'Computer Modern Sans Serif', 'Lucida Grande', 'Verdana', 'Geneva', 'Lucid', 'Arial', 'Helvetica', 'Avant Garde', sans-serif; text-anchor: middle; fill: #1e293b" x="304.350967" y="305.239121" transform="rotate(-0 304.350967 305.239121)">時間 (t) ──▶</text>
    </g>
   </g>
   <g id="matplotlib.axis_2">
    <g id="ytick_1">
     <g id="line2d_17">
      <path d="M 47.848438 274.730879 
L 560.853496 274.730879 
" clip-path="url(#p346bb0b420)" style="fill: none; stroke-dasharray: 0.8,1.32; stroke-dashoffset: 0; stroke: #e2e8f0; stroke-opacity: 0.8; stroke-width: 0.8"/>
     </g>
     <g id="line2d_18">
      <defs>
       <path id="m3a47cb30cd" d="M 0 0 
L -3.5 0 
" style="stroke: #000000; stroke-width: 0.8"/>
      </defs>
      <g>
       <use xlink:href="#m3a47cb30cd" x="47.848438" y="274.730879" style="stroke: #000000; stroke-width: 0.8"/>
      </g>
     </g>
     <g id="text_10">
      <text style="font-size: 11px; font-family: 'Yu Gothic UI', 'Hiragino Sans', 'Yu Gothic', 'Meiryo', 'DejaVu Sans', 'Bitstream Vera Sans', 'Computer Modern Sans Serif', 'Lucida Grande', 'Verdana', 'Geneva', 'Lucid', 'Arial', 'Helvetica', 'Avant Garde', sans-serif; text-anchor: end" x="40.848438" y="278.735029" transform="rotate(-0 40.848438 278.735029)">20</text>
     </g>
    </g>
    <g id="ytick_2">
     <g id="line2d_19">
      <path d="M 47.848438 240.393477 
L 560.853496 240.393477 
" clip-path="url(#p346bb0b420)" style="fill: none; stroke-dasharray: 0.8,1.32; stroke-dashoffset: 0; stroke: #e2e8f0; stroke-opacity: 0.8; stroke-width: 0.8"/>
     </g>
     <g id="line2d_20">
      <g>
       <use xlink:href="#m3a47cb30cd" x="47.848438" y="240.393477" style="stroke: #000000; stroke-width: 0.8"/>
      </g>
     </g>
     <g id="text_11">
      <text style="font-size: 11px; font-family: 'Yu Gothic UI', 'Hiragino Sans', 'Yu Gothic', 'Meiryo', 'DejaVu Sans', 'Bitstream Vera Sans', 'Computer Modern Sans Serif', 'Lucida Grande', 'Verdana', 'Geneva', 'Lucid', 'Arial', 'Helvetica', 'Avant Garde', sans-serif; text-anchor: end" x="40.848438" y="244.397627" transform="rotate(-0 40.848438 244.397627)">40</text>
     </g>
    </g>
    <g id="ytick_3">
     <g id="line2d_21">
      <path d="M 47.848438 206.056074 
L 560.853496 206.056074 
" clip-path="url(#p346bb0b420)" style="fill: none; stroke-dasharray: 0.8,1.32; stroke-dashoffset: 0; stroke: #e2e8f0; stroke-opacity: 0.8; stroke-width: 0.8"/>
     </g>
     <g id="line2d_22">
      <g>
       <use xlink:href="#m3a47cb30cd" x="47.848438" y="206.056074" style="stroke: #000000; stroke-width: 0.8"/>
      </g>
     </g>
     <g id="text_12">
      <text style="font-size: 11px; font-family: 'Yu Gothic UI', 'Hiragino Sans', 'Yu Gothic', 'Meiryo', 'DejaVu Sans', 'Bitstream Vera Sans', 'Computer Modern Sans Serif', 'Lucida Grande', 'Verdana', 'Geneva', 'Lucid', 'Arial', 'Helvetica', 'Avant Garde', sans-serif; text-anchor: end" x="40.848438" y="210.060225" transform="rotate(-0 40.848438 210.060225)">60</text>
     </g>
    </g>
    <g id="ytick_4">
     <g id="line2d_23">
      <path d="M 47.848438 171.718672 
L 560.853496 171.718672 
" clip-path="url(#p346bb0b420)" style="fill: none; stroke-dasharray: 0.8,1.32; stroke-dashoffset: 0; stroke: #e2e8f0; stroke-opacity: 0.8; stroke-width: 0.8"/>
     </g>
     <g id="line2d_24">
      <g>
       <use xlink:href="#m3a47cb30cd" x="47.848438" y="171.718672" style="stroke: #000000; stroke-width: 0.8"/>
      </g>
     </g>
     <g id="text_13">
      <text style="font-size: 11px; font-family: 'Yu Gothic UI', 'Hiragino Sans', 'Yu Gothic', 'Meiryo', 'DejaVu Sans', 'Bitstream Vera Sans', 'Computer Modern Sans Serif', 'Lucida Grande', 'Verdana', 'Geneva', 'Lucid', 'Arial', 'Helvetica', 'Avant Garde', sans-serif; text-anchor: end" x="40.848438" y="175.722822" transform="rotate(-0 40.848438 175.722822)">80</text>
     </g>
    </g>
    <g id="ytick_5">
     <g id="line2d_25">
      <path d="M 47.848438 137.38127 
L 560.853496 137.38127 
" clip-path="url(#p346bb0b420)" style="fill: none; stroke-dasharray: 0.8,1.32; stroke-dashoffset: 0; stroke: #e2e8f0; stroke-opacity: 0.8; stroke-width: 0.8"/>
     </g>
     <g id="line2d_26">
      <g>
       <use xlink:href="#m3a47cb30cd" x="47.848438" y="137.38127" style="stroke: #000000; stroke-width: 0.8"/>
      </g>
     </g>
     <g id="text_14">
      <text style="font-size: 11px; font-family: 'Yu Gothic UI', 'Hiragino Sans', 'Yu Gothic', 'Meiryo', 'DejaVu Sans', 'Bitstream Vera Sans', 'Computer Modern Sans Serif', 'Lucida Grande', 'Verdana', 'Geneva', 'Lucid', 'Arial', 'Helvetica', 'Avant Garde', sans-serif; text-anchor: end" x="40.848438" y="141.38542" transform="rotate(-0 40.848438 141.38542)">100</text>
     </g>
    </g>
    <g id="ytick_6">
     <g id="line2d_27">
      <path d="M 47.848438 103.043867 
L 560.853496 103.043867 
" clip-path="url(#p346bb0b420)" style="fill: none; stroke-dasharray: 0.8,1.32; stroke-dashoffset: 0; stroke: #e2e8f0; stroke-opacity: 0.8; stroke-width: 0.8"/>
     </g>
     <g id="line2d_28">
      <g>
       <use xlink:href="#m3a47cb30cd" x="47.848438" y="103.043867" style="stroke: #000000; stroke-width: 0.8"/>
      </g>
     </g>
     <g id="text_15">
      <text style="font-size: 11px; font-family: 'Yu Gothic UI', 'Hiragino Sans', 'Yu Gothic', 'Meiryo', 'DejaVu Sans', 'Bitstream Vera Sans', 'Computer Modern Sans Serif', 'Lucida Grande', 'Verdana', 'Geneva', 'Lucid', 'Arial', 'Helvetica', 'Avant Garde', sans-serif; text-anchor: end" x="40.848438" y="107.048018" transform="rotate(-0 40.848438 107.048018)">120</text>
     </g>
    </g>
    <g id="ytick_7">
     <g id="line2d_29">
      <path d="M 47.848438 68.706465 
L 560.853496 68.706465 
" clip-path="url(#p346bb0b420)" style="fill: none; stroke-dasharray: 0.8,1.32; stroke-dashoffset: 0; stroke: #e2e8f0; stroke-opacity: 0.8; stroke-width: 0.8"/>
     </g>
     <g id="line2d_30">
      <g>
       <use xlink:href="#m3a47cb30cd" x="47.848438" y="68.706465" style="stroke: #000000; stroke-width: 0.8"/>
      </g>
     </g>
     <g id="text_16">
      <text style="font-size: 11px; font-family: 'Yu Gothic UI', 'Hiragino Sans', 'Yu Gothic', 'Meiryo', 'DejaVu Sans', 'Bitstream Vera Sans', 'Computer Modern Sans Serif', 'Lucida Grande', 'Verdana', 'Geneva', 'Lucid', 'Arial', 'Helvetica', 'Avant Garde', sans-serif; text-anchor: end" x="40.848438" y="72.710615" transform="rotate(-0 40.848438 72.710615)">140</text>
     </g>
    </g>
    <g id="ytick_8">
     <g id="line2d_31">
      <path d="M 47.848438 34.369062 
L 560.853496 34.369062 
" clip-path="url(#p346bb0b420)" style="fill: none; stroke-dasharray: 0.8,1.32; stroke-dashoffset: 0; stroke: #e2e8f0; stroke-opacity: 0.8; stroke-width: 0.8"/>
     </g>
     <g id="line2d_32">
      <g>
       <use xlink:href="#m3a47cb30cd" x="47.848438" y="34.369062" style="stroke: #000000; stroke-width: 0.8"/>
      </g>
     </g>
     <g id="text_17">
      <text style="font-size: 11px; font-family: 'Yu Gothic UI', 'Hiragino Sans', 'Yu Gothic', 'Meiryo', 'DejaVu Sans', 'Bitstream Vera Sans', 'Computer Modern Sans Serif', 'Lucida Grande', 'Verdana', 'Geneva', 'Lucid', 'Arial', 'Helvetica', 'Avant Garde', sans-serif; text-anchor: end" x="40.848438" y="38.373213" transform="rotate(-0 40.848438 38.373213)">160</text>
     </g>
    </g>
    <g id="text_18">
     <text style="font-weight: 700; font-size: 11px; font-family: 'Yu Gothic UI', 'Hiragino Sans', 'Yu Gothic', 'Meiryo', 'DejaVu Sans', 'Bitstream Vera Sans', 'Computer Modern Sans Serif', 'Lucida Grande', 'Verdana', 'Geneva', 'Lucid', 'Arial', 'Helvetica', 'Avant Garde', sans-serif; text-anchor: middle; fill: #1e293b" x="16.470938" y="154.549971" transform="rotate(-90 16.470938 154.549971)">状態 / 量 (y)</text>
    </g>
   </g>
   <g id="line2d_33">
    <path d="M 47.848438 137.38127 
L 560.853496 137.38127 
" clip-path="url(#p346bb0b420)" style="fill: none; stroke-dasharray: 7.4,3.2; stroke-dashoffset: 0; stroke: #10b981; stroke-width: 2"/>
   </g>
   <g id="line2d_34">
    <path d="M 71.166849 257.562178 
L 72.726609 255.97613 
L 74.286369 254.040771 
L 75.846129 251.770482 
L 77.405889 249.180403 
L 78.965649 246.286364 
L 80.525409 243.104818 
L 83.644929 235.947727 
L 86.764449 227.850629 
L 89.883969 218.960638 
L 93.003489 209.428334 
L 97.682769 194.257811 
L 114.840129 137.169301 
L 117.959649 127.689659 
L 121.079169 118.768266 
L 124.198689 110.4943 
L 127.318209 102.944535 
L 130.437729 96.18292 
L 133.557249 90.260345 
L 135.117009 87.626013 
L 136.676769 85.214585 
L 138.236529 83.028752 
L 139.796289 81.070409 
L 141.356049 79.340667 
L 142.915808 77.839865 
L 144.475568 76.567591 
L 146.035328 75.522698 
L 147.595088 74.703326 
L 149.154848 74.106922 
L 150.714608 73.73027 
L 152.274368 73.56951 
L 153.834128 73.620169 
L 155.393888 73.877191 
L 156.953648 74.334963 
L 158.513408 74.987352 
L 160.073168 75.827729 
L 161.632928 76.84901 
L 163.192688 78.043684 
L 164.752448 79.403851 
L 167.871968 82.587316 
L 170.991488 86.329715 
L 174.111008 90.557361 
L 177.230528 95.193694 
L 180.350048 100.160406 
L 185.029328 108.05725 
L 202.186688 137.711411 
L 206.865968 144.977345 
L 209.985488 149.436268 
L 213.105008 153.536217 
L 216.224528 157.240895 
L 219.344048 160.520747 
L 222.463568 163.353033 
L 225.583088 165.721807 
L 228.702608 167.617815 
L 231.822128 169.038302 
L 234.941648 169.986756 
L 236.501408 170.286686 
L 238.061167 170.472573 
L 241.180687 170.510669 
L 244.300207 170.121034 
L 247.419727 169.328246 
L 250.539247 168.160938 
L 253.658767 166.651253 
L 256.778287 164.834264 
L 259.897807 162.747392 
L 263.017327 160.429815 
L 267.696607 156.609331 
L 273.935647 151.088034 
L 287.973487 138.418799 
L 292.652767 134.547339 
L 297.332047 131.019392 
L 300.451567 128.89722 
L 303.571087 126.981213 
L 306.690607 125.286578 
L 309.810127 123.824978 
L 312.929647 122.604549 
L 316.049167 121.629949 
L 319.168687 120.902466 
L 322.288207 120.42015 
L 325.407727 120.177988 
L 328.527247 120.168108 
L 331.646767 120.380012 
L 334.766286 120.800831 
L 337.885806 121.415595 
L 341.005326 122.20753 
L 345.684606 123.687284 
L 350.363886 125.457754 
L 355.043166 127.448661 
L 362.841966 131.061886 
L 375.320046 136.902584 
L 381.559086 139.541407 
L 386.238366 141.299799 
L 390.917646 142.827022 
L 395.596926 144.095139 
L 400.276206 145.085509 
L 404.955486 145.788686 
L 409.634766 146.204067 
L 414.314046 146.339309 
L 418.993326 146.209549 
L 423.672606 145.836468 
L 428.351885 145.247223 
L 434.590925 144.180209 
L 440.829965 142.868011 
L 450.188525 140.631864 
L 464.226365 137.242681 
L 472.025165 135.61095 
L 478.264205 134.529999 
L 484.503245 133.688504 
L 490.742285 133.107209 
L 496.981325 132.791974 
L 503.220365 132.734803 
L 509.459405 132.915491 
L 515.698445 133.303725 
L 523.497244 134.022462 
L 534.415564 135.310825 
L 537.535084 135.709398 
L 537.535084 135.709398 
" clip-path="url(#p346bb0b420)" style="fill: none; stroke: #d97706; stroke-width: 3; stroke-linecap: square"/>
   </g>
   <g id="line2d_35">
    <path d="M 71.166849 17.200361 
L 77.405889 22.697853 
L 83.644929 27.94387 
L 89.883969 32.949916 
L 97.682769 38.88669 
L 105.481569 44.485966 
L 113.280369 49.766931 
L 121.079169 54.747681 
L 128.877969 59.445283 
L 136.676769 63.875832 
L 144.475568 68.054511 
L 152.274368 71.995639 
L 160.073168 75.712718 
L 167.871968 79.218487 
L 177.230528 83.163346 
L 186.589088 86.840646 
L 195.947648 90.268535 
L 205.306208 93.46393 
L 214.664768 96.442599 
L 225.583088 99.66335 
L 236.501408 102.630716 
L 247.419727 105.364632 
L 258.338047 107.883463 
L 270.816127 110.520404 
L 283.294207 112.921617 
L 295.772287 115.108175 
L 309.810127 117.335297 
L 323.847967 119.339725 
L 339.445566 121.332691 
L 355.043166 123.105504 
L 372.200526 124.830263 
L 390.917646 126.475057 
L 411.194526 128.01459 
L 433.031165 129.430417 
L 456.427565 130.710776 
L 481.383725 131.85008 
L 509.459405 132.900922 
L 537.535084 133.752121 
L 537.535084 133.752121 
" clip-path="url(#p346bb0b420)" style="fill: none; stroke-dasharray: 1.5,2.475; stroke-dashoffset: 0; stroke: #64748b; stroke-opacity: 0.6; stroke-width: 1.5"/>
   </g>
   <g id="line2d_36">
    <path d="M 71.166849 257.562178 
L 77.405889 252.064686 
L 83.644929 246.818669 
L 89.883969 241.812623 
L 97.682769 235.875849 
L 105.481569 230.276573 
L 113.280369 224.995608 
L 121.079169 220.014858 
L 128.877969 215.317256 
L 136.676769 210.886707 
L 144.475568 206.708028 
L 152.274368 202.7669 
L 160.073168 199.049821 
L 167.871968 195.544052 
L 177.230528 191.599193 
L 186.589088 187.921893 
L 195.947648 184.494004 
L 205.306208 181.298609 
L 214.664768 178.31994 
L 225.583088 175.099189 
L 236.501408 172.131823 
L 247.419727 169.397907 
L 258.338047 166.879076 
L 270.816127 164.242135 
L 283.294207 161.840922 
L 295.772287 159.654365 
L 309.810127 157.427242 
L 323.847967 155.422814 
L 339.445566 153.429848 
L 355.043166 151.657035 
L 372.200526 149.932276 
L 390.917646 148.287483 
L 411.194526 146.74795 
L 433.031165 145.332122 
L 456.427565 144.051763 
L 481.383725 142.912459 
L 509.459405 141.861617 
L 537.535084 141.010418 
L 537.535084 141.010418 
" clip-path="url(#p346bb0b420)" style="fill: none; stroke-dasharray: 1.5,2.475; stroke-dashoffset: 0; stroke: #64748b; stroke-opacity: 0.6; stroke-width: 1.5"/>
   </g>
   <g id="patch_3">
    <path d="M 47.848438 274.730879 
L 47.848438 34.369062 
" style="fill: none; stroke: #64748b; stroke-width: 0.8; stroke-linejoin: miter; stroke-linecap: square"/>
   </g>
   <g id="patch_4">
    <path d="M 47.848438 274.730879 
L 560.853496 274.730879 
" style="fill: none; stroke: #64748b; stroke-width: 0.8; stroke-linejoin: miter; stroke-linecap: square"/>
   </g>
   <g id="patch_5">
    <path d="M 183.752831 52.597567 
Q 171.81633 63.099374 160.887113 72.714965 
" style="fill: none; stroke: #dc2626; stroke-width: 1.2; stroke-linecap: round"/>
    <path d="M 165.211348 71.574353 
L 160.887113 72.714965 
L 162.569165 68.57121 
" style="fill: none; stroke: #dc2626; stroke-width: 1.2; stroke-linecap: round"/>
   </g>
   <g id="text_19">
    <g id="patch_6">
     <path d="M 175.033514 50.780502 
L 233.063201 50.780502 
Q 237.063201 50.780502 237.063201 46.780502 
L 237.063201 22.702377 
Q 237.063201 18.702377 233.063201 18.702377 
L 175.033514 18.702377 
Q 171.033514 18.702377 171.033514 22.702377 
L 171.033514 46.780502 
Q 171.033514 50.780502 175.033514 50.780502 
z
" style="fill: #fef2f2; stroke: #dc2626; stroke-linejoin: miter"/>
    </g>
    <text style="font-weight: 700; font-size: 10px; font-family: 'Yu Gothic UI', 'Hiragino Sans', 'Yu Gothic', 'Meiryo', 'DejaVu Sans', 'Bitstream Vera Sans', 'Computer Modern Sans Serif', 'Lucida Grande', 'Verdana', 'Geneva', 'Lucid', 'Arial', 'Helvetica', 'Avant Garde', sans-serif; fill: #dc2626" transform="translate(175.033514 31.909115)">オーバーシュート</text>
    <text style="font-weight: 700; font-size: 10px; font-family: 'Yu Gothic UI', 'Hiragino Sans', 'Yu Gothic', 'Meiryo', 'DejaVu Sans', 'Bitstream Vera Sans', 'Computer Modern Sans Serif', 'Lucida Grande', 'Verdana', 'Geneva', 'Lucid', 'Arial', 'Helvetica', 'Avant Garde', sans-serif; fill: #dc2626" transform="translate(175.033514 44.019272)">（やりすぎ）</text>
   </g>
   <g id="patch_7">
    <path d="M 261.635951 180.454016 
Q 254.444614 175.698124 248.372334 171.682306 
" style="fill: none; stroke: #2563eb; stroke-width: 1.2; stroke-linecap: round"/>
    <path d="M 250.605484 175.556973 
L 248.372334 171.682306 
L 252.811958 172.220586 
" style="fill: none; stroke: #2563eb; stroke-width: 1.2; stroke-linecap: round"/>
   </g>
   <g id="text_20">
    <g id="patch_8">
     <path d="M 258.912968 214.373405 
L 318.070781 214.373405 
Q 322.070781 214.373405 322.070781 210.373405 
L 322.070781 186.056217 
Q 322.070781 182.056217 318.070781 182.056217 
L 258.912968 182.056217 
Q 254.912968 182.056217 254.912968 186.056217 
L 254.912968 210.373405 
Q 254.912968 214.373405 258.912968 214.373405 
z
" style="fill: #eff6ff; stroke: #2563eb; stroke-linejoin: miter"/>
    </g>
    <text style="font-weight: 700; font-size: 10px; font-family: 'Yu Gothic UI', 'Hiragino Sans', 'Yu Gothic', 'Meiryo', 'DejaVu Sans', 'Bitstream Vera Sans', 'Computer Modern Sans Serif', 'Lucida Grande', 'Verdana', 'Geneva', 'Lucid', 'Arial', 'Helvetica', 'Avant Garde', sans-serif; fill: #2563eb" transform="translate(258.912968 195.502018)">アンダーシュート</text>
    <text style="font-weight: 700; font-size: 10px; font-family: 'Yu Gothic UI', 'Hiragino Sans', 'Yu Gothic', 'Meiryo', 'DejaVu Sans', 'Bitstream Vera Sans', 'Computer Modern Sans Serif', 'Lucida Grande', 'Verdana', 'Geneva', 'Lucid', 'Arial', 'Helvetica', 'Avant Garde', sans-serif; fill: #2563eb" transform="translate(258.912968 207.612174)">（戻しすぎ）</text>
   </g>
   <g id="patch_9">
    <path d="M 444.664786 178.950207 
Q 457.25367 159.011884 469.126279 140.207998 
" style="fill: none; stroke: #10b981; stroke-width: 1.2; stroke-linecap: round"/>
    <path d="M 465.29964 142.522481 
L 469.126279 140.207998 
L 468.681882 144.657999 
" style="fill: none; stroke: #10b981; stroke-width: 1.2; stroke-linecap: round"/>
   </g>
   <g id="text_21">
    <g id="patch_10">
     <path d="M 404.287017 212.817305 
L 462.27608 212.817305 
Q 466.27608 212.817305 466.27608 208.817305 
L 466.27608 185.140742 
Q 466.27608 181.140742 462.27608 181.140742 
L 404.287017 181.140742 
Q 400.287017 181.140742 400.287017 185.140742 
L 400.287017 208.817305 
Q 400.287017 212.817305 404.287017 212.817305 
z
" style="fill: #ecfdf5; stroke: #10b981; stroke-linejoin: miter"/>
    </g>
    <text style="font-weight: 700; font-size: 10px; font-family: 'Yu Gothic UI', 'Hiragino Sans', 'Yu Gothic', 'Meiryo', 'DejaVu Sans', 'Bitstream Vera Sans', 'Computer Modern Sans Serif', 'Lucida Grande', 'Verdana', 'Geneva', 'Lucid', 'Arial', 'Helvetica', 'Avant Garde', sans-serif; fill: #047857" transform="translate(404.287017 194.239668)">時間の経過で</text>
    <text style="font-weight: 700; font-size: 10px; font-family: 'Yu Gothic UI', 'Hiragino Sans', 'Yu Gothic', 'Meiryo', 'DejaVu Sans', 'Bitstream Vera Sans', 'Computer Modern Sans Serif', 'Lucida Grande', 'Verdana', 'Geneva', 'Lucid', 'Arial', 'Helvetica', 'Avant Garde', sans-serif; fill: #047857" transform="translate(404.287017 206.056074)">目標値に収束</text>
   </g>
   <g id="text_22">
    <text style="font-weight: 700; font-size: 14px; font-family: 'Yu Gothic UI', 'Hiragino Sans', 'Yu Gothic', 'Meiryo', 'DejaVu Sans', 'Bitstream Vera Sans', 'Computer Modern Sans Serif', 'Lucida Grande', 'Verdana', 'Geneva', 'Lucid', 'Arial', 'Helvetica', 'Avant Garde', sans-serif; text-anchor: middle; fill: #1e293b" x="304.350967" y="19.369062" transform="rotate(-0 304.350967 19.369062)">Unit 4: 減衰振動（Damped Oscillation）— 「時間の遅れによる揺れと収束」</text>
   </g>
   <g id="PathCollection_1">
    <defs>
     <path id="m067f3e0602" d="M 0 3.872983 
C 1.027127 3.872983 2.012324 3.464901 2.738613 2.738613 
C 3.464901 2.012324 3.872983 1.027127 3.872983 0 
C 3.872983 -1.027127 3.464901 -2.012324 2.738613 -2.738613 
C 2.012324 -3.464901 1.027127 -3.872983 0 -3.872983 
C -1.027127 -3.872983 -2.012324 -3.464901 -2.738613 -2.738613 
C -3.464901 -2.012324 -3.872983 -1.027127 -3.872983 0 
C -3.872983 1.027127 -3.464901 2.012324 -2.738613 2.738613 
C -2.012324 3.464901 -1.027127 3.872983 0 3.872983 
z
" style="stroke: #dc2626"/>
    </defs>
    <g clip-path="url(#p346bb0b420)">
     <use xlink:href="#m067f3e0602" x="158.377505" y="74.922934" style="fill: #dc2626; stroke: #dc2626"/>
    </g>
   </g>
   <g id="PathCollection_2">
    <defs>
     <path id="m3d7b393657" d="M 0 3.872983 
C 1.027127 3.872983 2.012324 3.464901 2.738613 2.738613 
C 3.464901 2.012324 3.872983 1.027127 3.872983 0 
C 3.872983 -1.027127 3.464901 -2.012324 2.738613 -2.738613 
C 2.012324 -3.464901 1.027127 -3.872983 0 -3.872983 
C -1.027127 -3.872983 -2.012324 -3.464901 -2.738613 -2.738613 
C -3.464901 -2.012324 -3.872983 -1.027127 -3.872983 0 
C -3.872983 1.027127 -3.464901 2.012324 -2.738613 2.738613 
C -2.012324 3.464901 -1.027127 3.872983 0 3.872983 
z
" style="stroke: #2563eb"/>
    </defs>
    <g clip-path="url(#p346bb0b420)">
     <use xlink:href="#m3d7b393657" x="245.588161" y="169.841032" style="fill: #2563eb; stroke: #2563eb"/>
    </g>
   </g>
   <g id="legend_1">
    <g id="patch_11">
     <path d="M 369.676934 77.738066 
L 553.153496 77.738066 
Q 555.353496 77.738066 555.353496 75.538066 
L 555.353496 42.069062 
Q 555.353496 39.869062 553.153496 39.869062 
L 369.676934 39.869062 
Q 367.476934 39.869062 367.476934 42.069062 
L 367.476934 75.538066 
Q 367.476934 77.738066 369.676934 77.738066 
z
" style="fill: #ffffff; opacity: 0.8; stroke: #e2e8f0; stroke-linejoin: miter"/>
    </g>
    <g id="line2d_37">
     <path d="M 371.876934 49.550781 
L 382.876934 49.550781 
L 393.876934 49.550781 
" style="fill: none; stroke-dasharray: 7.4,3.2; stroke-dashoffset: 0; stroke: #10b981; stroke-width: 2"/>
    </g>
    <g id="text_23">
     <text style="font-size: 11px; font-family: 'Yu Gothic UI', 'Hiragino Sans', 'Yu Gothic', 'Meiryo', 'DejaVu Sans', 'Bitstream Vera Sans', 'Computer Modern Sans Serif', 'Lucida Grande', 'Verdana', 'Geneva', 'Lucid', 'Arial', 'Helvetica', 'Avant Garde', sans-serif; text-anchor: start" x="402.676934" y="53.400781" transform="rotate(-0 402.676934 53.400781)">目標値 (Target = 100)</text>
    </g>
    <g id="line2d_38">
     <path d="M 371.876934 67.173125 
L 382.876934 67.173125 
L 393.876934 67.173125 
" style="fill: none; stroke: #d97706; stroke-width: 3; stroke-linecap: square"/>
    </g>
    <g id="text_24">
     <text style="font-size: 11px; font-family: 'Yu Gothic UI', 'Hiragino Sans', 'Yu Gothic', 'Meiryo', 'DejaVu Sans', 'Bitstream Vera Sans', 'Computer Modern Sans Serif', 'Lucida Grande', 'Verdana', 'Geneva', 'Lucid', 'Arial', 'Helvetica', 'Avant Garde', sans-serif; text-anchor: start" x="402.676934" y="71.023125" transform="rotate(-0 402.676934 71.023125)">システムの振る舞い（減衰振動）</text>
    </g>
   </g>
  </g>
 </g>
 <defs>
  <clipPath id="p346bb0b420">
   <rect x="47.848438" y="34.369062" width="513.005059" height="240.361816"/>
  </clipPath>
 </defs>
</svg>
